<?xml version="1.0" encoding="UTF-8" standalone="no"?>
<!DOCTYPE svg PUBLIC "-//W3C//DTD SVG 1.1//EN" "http://www.w3.org/Graphics/SVG/1.1/DTD/svg11.dtd">
<svg width="100%" height="100%" viewBox="0 0 108 108" version="1.1" xmlns="http://www.w3.org/2000/svg" xmlns:xlink="http://www.w3.org/1999/xlink" xml:space="preserve" xmlns:serif="http://www.serif.com/" style="fill-rule:evenodd;clip-rule:evenodd;stroke-linejoin:round;stroke-miterlimit:2;">
    <g transform="matrix(1,0,0,1,0,-124)">
        <g id="Artboard6" transform="matrix(1,0,0,1,3.82712,-0.655667)">
            <rect x="-3.827" y="124.656" width="107.844" height="107.719" style="fill:none;"/>
            <g transform="matrix(1.99902,0,0,1.99902,1.46993,133.191)">
                <path d="M5,25.5C5.65,25.5 6.2,25.08 6.41,24.5L7.53,24.5C7.59,26.38 7.96,28.17 8.59,29.84L7.55,30.27C7.4,30.11 7.23,29.97 7.02,29.88C6.65,29.73 6.24,29.73 5.87,29.88C5.11,30.2 4.74,31.08 5.06,31.84C5.21,32.21 5.5,32.5 5.87,32.65C6.05,32.73 6.25,32.77 6.44,32.77C6.63,32.77 6.83,32.73 7.01,32.65C7.61,32.4 7.96,31.8 7.93,31.19L8.96,30.76C9.72,32.44 10.75,33.96 11.99,35.28L11.19,36.08C10.63,35.82 9.95,35.9 9.49,36.36C8.91,36.94 8.91,37.9 9.49,38.48C9.78,38.77 10.17,38.92 10.55,38.92C10.93,38.92 11.32,38.77 11.61,38.48C12.07,38.02 12.15,37.34 11.89,36.78L12.69,35.98C14.01,37.23 15.54,38.26 17.21,39.01L16.78,40.04C16.17,40.01 15.57,40.36 15.32,40.96C15,41.72 15.37,42.6 16.13,42.92C16.32,43 16.51,43.03 16.7,43.03C17.29,43.03 17.85,42.68 18.09,42.1C18.34,41.5 18.16,40.83 17.7,40.42L18.13,39.39C19.8,40.03 21.6,40.4 23.47,40.45L23.47,41.57C22.89,41.78 22.47,42.33 22.47,42.98C22.47,43.81 23.14,44.48 23.97,44.48C24.8,44.48 25.47,43.81 25.47,42.98C25.47,42.33 25.05,41.78 24.47,41.57L24.47,40.45C26.35,40.39 28.14,40.02 29.81,39.39L30.24,40.42C29.78,40.83 29.61,41.5 29.85,42.1C30.09,42.68 30.65,43.03 31.24,43.03C31.43,43.03 31.62,42.99 31.81,42.92C32.57,42.6 32.94,41.72 32.62,40.96C32.37,40.36 31.77,40.01 31.16,40.04L30.73,39.01C32.41,38.25 33.93,37.22 35.25,35.98L36.05,36.78C35.79,37.34 35.87,38.02 36.33,38.48C36.62,38.77 37.01,38.92 37.39,38.92C37.77,38.92 38.16,38.77 38.45,38.48C39.03,37.9 39.03,36.94 38.45,36.36C37.99,35.9 37.31,35.82 36.75,36.08L35.95,35.28C37.2,33.96 38.23,32.43 38.98,30.76L40.01,31.19C39.98,31.81 40.33,32.4 40.93,32.65C41.12,32.73 41.31,32.77 41.5,32.77C41.69,32.77 41.89,32.73 42.07,32.65C42.44,32.5 42.73,32.21 42.88,31.84C43.2,31.08 42.83,30.2 42.07,29.88C41.7,29.73 41.29,29.73 40.92,29.88C40.71,29.97 40.54,30.1 40.39,30.27L39.35,29.84C39.99,28.17 40.36,26.37 40.41,24.5L41.53,24.5C41.74,25.08 42.29,25.5 42.94,25.5C43.77,25.5 44.44,24.83 44.44,24C44.44,23.17 43.77,22.5 42.94,22.5C42.29,22.5 41.74,22.92 41.53,23.5L40.41,23.5C40.35,21.62 39.98,19.83 39.35,18.16L40.39,17.73C40.54,17.89 40.71,18.03 40.92,18.12C41.1,18.2 41.3,18.24 41.49,18.24C41.68,18.24 41.88,18.2 42.06,18.12C42.82,17.8 43.19,16.92 42.87,16.16C42.72,15.79 42.43,15.5 42.06,15.35C41.69,15.2 41.28,15.2 40.91,15.35C40.31,15.6 39.96,16.2 39.99,16.81L38.96,17.24C38.2,15.56 37.17,14.04 35.93,12.72L36.73,11.92C36.93,12.02 37.15,12.08 37.37,12.08C37.75,12.08 38.14,11.93 38.43,11.64C39.01,11.06 39.01,10.1 38.43,9.52C37.85,8.94 36.89,8.93 36.31,9.52C35.85,9.98 35.77,10.66 36.03,11.22L35.23,12.02C33.91,10.77 32.38,9.74 30.71,8.99L31.14,7.96C31.17,7.96 31.19,7.97 31.22,7.97C31.81,7.97 32.37,7.62 32.61,7.04C32.93,6.28 32.56,5.4 31.8,5.08C31.04,4.76 30.16,5.13 29.84,5.89C29.59,6.49 29.77,7.16 30.23,7.57L29.8,8.6C28.13,7.96 26.33,7.59 24.46,7.54L24.46,6.41C25.04,6.2 25.46,5.65 25.46,5C25.46,4.17 24.79,3.5 23.96,3.5C23.13,3.5 22.5,4.17 22.5,5C22.5,5.65 22.92,6.2 23.5,6.41L23.5,7.53C21.62,7.59 19.83,7.96 18.16,8.59L17.73,7.56C18.19,7.15 18.36,6.48 18.12,5.88C17.8,5.12 16.92,4.75 16.16,5.07C15.4,5.39 15.03,6.27 15.35,7.03C15.59,7.61 16.15,7.96 16.74,7.96C16.77,7.96 16.79,7.95 16.82,7.95L17.25,8.98C15.57,9.74 14.05,10.77 12.73,12.01L11.93,11.21C12.19,10.65 12.11,9.97 11.65,9.51C11.07,8.92 10.11,8.92 9.53,9.51C8.95,10.09 8.95,11.05 9.53,11.63C9.82,11.92 10.21,12.07 10.59,12.07C10.81,12.07 11.02,12.01 11.23,11.91L12.03,12.71C10.78,14.03 9.75,15.56 9,17.23L7.97,16.8C8,16.18 7.65,15.59 7.05,15.34C6.68,15.19 6.27,15.19 5.9,15.34C5.53,15.49 5.24,15.78 5.09,16.15C4.77,16.91 5.14,17.79 5.9,18.11C6.09,18.19 6.28,18.23 6.47,18.23C6.66,18.23 6.86,18.19 7.04,18.11C7.25,18.02 7.42,17.89 7.57,17.72L8.61,18.15C7.97,19.82 7.6,21.62 7.55,23.49L6.41,23.49C6.2,22.91 5.65,22.49 5,22.49C4.17,22.49 3.5,23.16 3.5,23.99C3.5,24.82 4.17,25.5 5,25.5ZM16,34.5C15.17,34.5 14.5,33.83 14.5,33C14.5,32.17 15.17,31.5 16,31.5C16.83,31.5 17.5,32.17 17.5,33C17.5,33.83 16.83,34.5 16,34.5ZM24,37.5C22.62,37.5 21.5,36.38 21.5,35C21.5,33.62 22.62,32.5 24,32.5C25.38,32.5 26.5,33.62 26.5,35C26.5,36.38 25.38,37.5 24,37.5ZM37.5,25C37.5,25.83 36.83,26.5 36,26.5C35.17,26.5 34.5,25.83 34.5,25C34.5,24.17 35.17,23.5 36,23.5C36.83,23.5 37.5,24.17 37.5,25ZM35,18.5C35.83,18.5 36.5,19.17 36.5,20C36.5,20.83 35.83,21.5 35,21.5C34.17,21.5 33.5,20.83 33.5,20C33.5,19.17 34.17,18.5 35,18.5ZM33.5,35C33.5,35.83 32.83,36.5 32,36.5C31.17,36.5 30.5,35.83 30.5,35C30.5,34.17 31.17,33.5 32,33.5C32.83,33.5 33.5,34.17 33.5,35ZM31,28.5C31.83,28.5 32.5,29.17 32.5,30C32.5,30.83 31.83,31.5 31,31.5C30.17,31.5 29.5,30.83 29.5,30C29.5,29.17 30.17,28.5 31,28.5ZM30.5,23C30.5,24.38 29.38,25.5 28,25.5C26.62,25.5 25.5,24.38 25.5,23C25.5,21.62 26.62,20.5 28,20.5C29.38,20.5 30.5,21.62 30.5,23ZM27,11.5C28.38,11.5 29.5,12.62 29.5,14C29.5,15.38 28.38,16.5 27,16.5C25.62,16.5 24.5,15.38 24.5,14C24.5,12.62 25.62,11.5 27,11.5ZM23,9.5C23.83,9.5 24.5,10.17 24.5,11C24.5,11.83 23.83,12.5 23,12.5C22.17,12.5 21.5,11.83 21.5,11C21.5,10.17 22.17,9.5 23,9.5ZM21.5,28C21.5,28.83 20.83,29.5 20,29.5C19.17,29.5 18.5,28.83 18.5,28C18.5,27.17 19.17,26.5 20,26.5C20.83,26.5 21.5,27.17 21.5,28ZM20.5,20C20.5,20.83 19.83,21.5 19,21.5C18.17,21.5 17.5,20.83 17.5,20C17.5,19.17 18.17,18.5 19,18.5C19.83,18.5 20.5,19.17 20.5,20ZM16,12.5C17.38,12.5 18.5,13.62 18.5,15C18.5,16.38 17.38,17.5 16,17.5C14.62,17.5 13.5,16.38 13.5,15C13.5,13.62 14.62,12.5 16,12.5ZM13,24.5C13.83,24.5 14.5,25.17 14.5,26C14.5,26.83 13.83,27.5 13,27.5C12.17,27.5 11.5,26.83 11.5,26C11.5,25.17 12.17,24.5 13,24.5Z" style="fill:rgb(255,143,0);fill-rule:nonzero;"/>
            </g>
        </g>
    </g>
</svg>
