<?xml version="1.0" encoding="UTF-8" standalone="no"?>
<!DOCTYPE svg PUBLIC "-//W3C//DTD SVG 1.1//EN" "http://www.w3.org/Graphics/SVG/1.1/DTD/svg11.dtd">
<svg width="100%" height="100%" viewBox="0 0 108 108" version="1.1" xmlns="http://www.w3.org/2000/svg" xmlns:xlink="http://www.w3.org/1999/xlink" xml:space="preserve" xmlns:serif="http://www.serif.com/" style="fill-rule:evenodd;clip-rule:evenodd;stroke-linejoin:round;stroke-miterlimit:2;">
    <g transform="matrix(1,0,0,1,3.82712,-124.656)">
        <g id="Artboard6">
            <rect x="-3.827" y="124.656" width="107.844" height="107.719" style="fill:none;"/>
            <g transform="matrix(0.897318,0,0,0.859859,6.32435,136.988)">
                <g>
                    <path d="M92,60.8C91.7,59.9 91.3,59.2 90.7,58.7C91.2,57.3 91.1,55.9 90.3,54.6C89.1,52.9 86.9,51.3 82.7,54C81,55.1 79.9,57 79.4,58.3C79,59.3 78.2,60.1 77.3,60.5L50,74.1L22.8,60.5C21.8,60 21.1,59.2 20.7,58.3C20.1,57 19.1,55.1 17.4,54C13.2,51.3 11,52.8 9.8,54.6C9,55.8 8.8,57.3 9.4,58.7C8.9,59.2 8.4,59.9 8.1,60.8C7.6,62.1 7.7,63.4 8.2,64.4C8.7,65.5 9.8,66.4 11.2,66.8C12.3,67.2 13.9,67.1 15.8,66.6C16.9,66.3 18,66.4 19,66.9L41.7,78.2L31.6,83.2C30.6,83.7 29.5,83.8 28.4,83.5C27.1,83.1 25.1,82.9 23.2,83.6C18.6,85.3 18.4,88.1 19.1,90C19.6,91.4 20.7,92.4 22.1,92.8C22.2,93.6 22.5,94.3 23,95.1C23.8,96.2 24.8,97 26,97.2C26.3,97.2 26.5,97.3 26.8,97.3C27.8,97.3 28.8,97 29.8,96.3C30.8,95.6 31.6,94.4 32.2,92.7C32.6,91.6 33.4,90.6 34.5,90.1L50,82.5L65.6,90.3C66.6,90.8 67.4,91.7 67.9,92.9C68.5,94.6 69.3,95.8 70.3,96.5C71.3,97.2 72.3,97.5 73.3,97.5C73.6,97.5 73.8,97.5 74.1,97.4C75.3,97.2 76.3,96.4 77.1,95.3C77.6,94.5 77.9,93.8 78,93C79.4,92.6 80.5,91.6 81,90.2C81.7,88.2 81.6,85.5 76.9,83.8C75,83.1 73,83.4 71.6,83.7C70.5,84 69.4,83.9 68.4,83.4L58.3,78.4L81,67C82,66.5 83.2,66.4 84.2,66.7C86.1,67.2 87.7,67.3 88.8,66.9C90.2,66.4 91.2,65.6 91.8,64.5C92.4,63.3 92.4,62.1 92,60.8Z" style="fill:rgb(248,2,2);fill-rule:nonzero;"/>
                </g>
                <g>
                    <path d="M32.5,49.9C33.5,50.7 34.2,51.7 34.3,53L34.7,56.8C34.9,59.1 36.6,61.1 38.8,61.7C46.1,63.6 53.8,63.6 61.1,61.7C63.4,61.1 65,59.2 65.2,56.8L65.6,53C65.7,51.8 66.4,50.7 67.4,49.9C73.4,45.3 77.3,37.8 77.3,27.7C77.3,9.7 65.1,2.5 50,2.5C34.9,2.5 22.7,9.7 22.7,27.7C22.7,37.8 26.5,45.3 32.5,49.9ZM54.6,32.6C55,29.1 57.5,26.5 62,27.1C66.5,27.7 68.3,30.8 67.8,34.2C67.4,37.7 65.5,40.2 60.4,39.7C55.3,39.2 54.1,36.1 54.6,32.6ZM45.7,48.8L48.6,42C49.1,40.8 50.9,40.8 51.4,42L54.3,48.8C54.9,50.2 53.9,51.8 52.3,51.8L47.6,51.8C46.1,51.7 45.1,50.2 45.7,48.8ZM38,27.2C42.5,26.6 45,29.2 45.4,32.7C45.8,36.2 44.7,39.3 39.6,39.8C34.5,40.3 32.6,37.8 32.2,34.3C31.8,30.8 33.5,27.8 38,27.2Z" style="fill:rgb(248,2,2);fill-rule:nonzero;"/>
                </g>
            </g>
        </g>
    </g>
</svg>
