<?xml version="1.0" encoding="UTF-8" standalone="no"?>
<!DOCTYPE svg PUBLIC "-//W3C//DTD SVG 1.1//EN" "http://www.w3.org/Graphics/SVG/1.1/DTD/svg11.dtd">
<svg width="100%" height="100%" viewBox="0 0 70 103" version="1.1" xmlns="http://www.w3.org/2000/svg" xmlns:xlink="http://www.w3.org/1999/xlink" xml:space="preserve" xmlns:serif="http://www.serif.com/" style="fill-rule:evenodd;clip-rule:evenodd;stroke-linejoin:round;stroke-miterlimit:2;">
    <g transform="matrix(1,0,0,1,-131,-125)">
        <g id="Artboard7" transform="matrix(0.713541,0,0,0.918903,37.4257,9.25183)">
            <rect x="131.141" y="125.963" width="97.666" height="111.561" style="fill:none;"/>
            <g transform="matrix(0.826984,0,0,1.26914,62.4767,-419.035)">
                <g transform="matrix(1.78873,0,0,0.896508,50.3124,430.69)">
                    <circle cx="62.436" cy="19.266" r="8.996"/>
                </g>
                <g transform="matrix(1.78873,0,0,0.896508,50.3124,430.69)">
                    <path d="M69.334,46.36L59.336,42.198L57.848,31.626C57.807,31.341 57.717,31.078 57.606,30.827C57.303,28.807 56.197,26.915 54.373,25.678C50.908,23.328 46.195,24.233 43.845,27.699L29.875,48.297C28.931,49.689 28.521,51.281 28.583,52.842C28.579,52.938 28.568,53.03 28.568,53.127L28.568,82.872C28.568,86.66 31.638,89.73 35.426,89.73C39.214,89.73 42.285,86.66 42.285,82.872L42.285,56.989C42.33,56.926 42.38,56.87 42.423,56.805L53.06,41.121L53.574,44.767C53.732,45.894 54.497,46.776 55.489,47.16C55.507,47.168 55.522,47.18 55.54,47.187L67.005,51.957C67.112,52.002 67.224,52.024 67.333,52.057L67.333,89.73L68.786,89.73L68.786,52.125C69.733,51.928 70.569,51.284 70.969,50.324C71.611,48.778 70.881,47.003 69.334,46.36Z" style="fill-rule:nonzero;"/>
                </g>
            </g>
        </g>
    </g>
</svg>
