<?xml version="1.0" encoding="UTF-8" standalone="no"?>
<!DOCTYPE svg PUBLIC "-//W3C//DTD SVG 1.1//EN" "http://www.w3.org/Graphics/SVG/1.1/DTD/svg11.dtd">
<svg width="100%" height="100%" viewBox="0 0 56 94" version="1.1" xmlns="http://www.w3.org/2000/svg" xmlns:xlink="http://www.w3.org/1999/xlink" xml:space="preserve" xmlns:serif="http://www.serif.com/" style="fill-rule:evenodd;clip-rule:evenodd;stroke-linejoin:round;stroke-miterlimit:2;">
    <g transform="matrix(1,0,0,1,-288,-4)">
        <g id="Artboard4" transform="matrix(1,0,0,1,-0.769727,-0.939024)">
            <rect x="288.77" y="4.939" width="55.47" height="93.178" style="fill:none;"/>
            <g transform="matrix(4.39694,0,0,4.8699,296.638,13.2543)">
                <path d="M8.7,8.2L7.1,4C6.9,3.7 6.7,3.5 6.3,3.5L2.3,3.5C2,3.5 1.8,3.7 1.6,4L0,8.2C-0.1,8.6 0,9 0.4,9.2C0.8,9.3 1.2,9.2 1.4,8.8L2.7,5.4L2.7,6L0.8,11L2.7,11L2.7,15.3C2.7,15.7 3,16.1 3.5,16.1C4,16.1 4.3,15.8 4.3,15.3L4.3,11L4.6,11L4.6,15.3C4.6,15.7 4.9,16.1 5.4,16.1C5.9,16.1 6,15.7 6,15.3L6,11L7.9,11L6,6L6,5.4L7.3,8.8C7.4,9.2 7.9,9.4 8.3,9.2C8.6,9 8.8,8.6 8.7,8.2ZM4.3,3C5.1,3 5.8,2.3 5.8,1.5C5.8,0.7 5.2,0 4.3,0C3.4,0 2.8,0.7 2.8,1.5C2.8,2.3 3.5,3 4.3,3Z" style="fill-rule:nonzero;"/>
            </g>
        </g>
    </g>
</svg>
