<?xml version="1.0" encoding="UTF-8" standalone="no"?>
<!DOCTYPE svg PUBLIC "-//W3C//DTD SVG 1.1//EN" "http://www.w3.org/Graphics/SVG/1.1/DTD/svg11.dtd">
<svg width="100%" height="100%" viewBox="0 0 108 108" version="1.1" xmlns="http://www.w3.org/2000/svg" xmlns:xlink="http://www.w3.org/1999/xlink" xml:space="preserve" xmlns:serif="http://www.serif.com/" style="fill-rule:evenodd;clip-rule:evenodd;stroke-linejoin:round;stroke-miterlimit:2;">
    <g transform="matrix(1,0,0,1,0,-124)">
        <g id="Artboard6" transform="matrix(1,0,0,1,3.82712,-0.655667)">
            <rect x="-3.827" y="124.656" width="107.844" height="107.719" style="fill:none;"/>
            <g transform="matrix(0.0996027,0,0,0.100339,-1.8684,127.969)">
                <path d="M940.3,643.7C939.4,617.6 918.6,596.9 892.3,596.4L736.7,596.4L736.7,566.5C735.6,536.8 711.8,513.3 681.9,512.9C676.8,512.8 671.7,512.9 666.6,512.9L484.6,512.9C468,512.9 451.4,512.6 434.8,512.9C404.6,513.4 380.5,537.5 380,567.7C379.9,577.3 379.9,586.9 380,596.5L310.3,596.5C303.5,596.5 296.6,596.3 289.7,596.4C271,574.4 252.2,552.4 233.5,530.4C225,520.5 216.6,510.5 208.1,500.6C188.7,478 153.3,473.4 129.2,491.6C115.7,501.8 103,513.4 90,524.3C83.4,529.8 85.1,539.8 90,545.5C107,565.5 124,585.6 141.1,605.7C166.3,635.4 191.5,665 216.7,694.7C222.6,701.6 228.1,711.2 238.1,711.6C241.4,711.8 244.8,711.6 248.2,711.6L253.3,711.6L253.3,803C240.9,807.6 229.9,816.2 222.8,827.7C210.5,847.7 211.6,874.5 225.7,893.3C240.2,912.5 264.6,921.6 288.1,915.6C313.8,909.1 331.4,885.5 332.3,859.5L332.3,857.4C331.5,832.8 316.2,811.5 293.3,802.8L293.3,711.4L778.6,711.4L778.6,803C766.2,807.6 755.2,816.2 748.1,827.7C735.8,847.7 736.9,874.5 751,893.3C765.5,912.5 789.9,921.6 813.4,915.6C839,909.1 856.7,885.5 857.6,859.5L857.6,857.5C856.8,832.9 841.5,811.6 818.6,802.9L818.6,711.5L878.5,711.5C893.5,711.5 908.4,711.7 923.4,711.5L925.3,711.5C933.4,711.5 940.3,704.6 940.3,696.5L940.3,644.5C940.4,644.2 940.4,644 940.3,643.7ZM696.8,566.2C696.8,566.7 696.7,567.1 696.7,567.6L696.7,591.4L420,591.4L420,566C420.1,565.6 420.2,565.1 420.3,564.7C420.5,563.8 420.8,563 421,562.1C421.1,561.8 421.2,561.5 421.3,561.3C421.8,560.5 422.2,559.8 422.3,559.7C422.5,559.3 422.8,559 423,558.6C423.1,558.5 423.1,558.4 423.2,558.3C422.9,558.7 422.6,559 422.4,559.2C423.9,557.2 424.2,556.9 423.2,558.3C423.8,557.6 424.6,556.8 425.2,556.1C425.8,555.7 426.4,555.3 427,555C427.1,554.9 427.9,554.4 428.7,554C429.4,553.8 430,553.6 430.7,553.4C431.6,553.1 432.4,552.9 433.3,552.8C433.8,552.7 434.1,552.7 434.3,552.6C438.2,552.5 445.8,552.8 446.1,552.8L683.5,552.8C684.1,552.8 684.5,552.9 684.7,552.9C685.9,553.3 687.2,553.7 687.5,553.8L687.7,553.8L687.6,553.8C683.9,551.6 691.5,554.7 687.7,553.9C688.1,554.1 689.5,554.8 690.6,555.4C690.4,555.2 690.3,555.1 690.1,555C690.4,555.2 690.6,555.4 690.9,555.6C690.8,555.5 690.7,555.5 690.6,555.4C691.1,555.8 691.6,556.2 692,556.7C692.6,557.3 693.2,557.9 693.8,558.6C693.9,558.7 694,558.8 694.1,558.9C694.6,559.8 695.2,560.7 695.2,560.9C695.4,561.2 695.5,561.5 695.7,561.8C695.7,561.9 695.8,562 695.8,562.2C696.1,563.4 696.4,564.5 696.7,565.7L696.7,564.8C696.8,565.2 696.8,565.6 696.9,566C697,567 697.1,567.5 697.1,567.5C697,567.4 696.9,567 696.8,566.2Z" style="fill-rule:nonzero;"/>
                <path d="M712.4,213.8L712.4,299.4C712.4,302.1 710.1,304.4 707.4,304.4L606.2,304.4L606.2,405.7C606.2,408.4 603.9,410.7 601.2,410.7L515.6,410.7C512.9,410.7 510.6,408.4 510.6,405.7L510.6,304.4L409.3,304.4C406.6,304.4 404.3,302.1 404.3,299.4L404.3,213.8C404.3,211.1 406.6,208.8 409.3,208.8L510.6,208.8L510.6,107.5C510.6,104.8 512.9,102.5 515.6,102.5L601.2,102.5C603.9,102.5 606.2,104.8 606.2,107.5L606.2,208.8L707.5,208.8C709,208.8 710.2,209.3 710.9,210.2L711,210.3C711,210.3 711.1,210.3 711.1,210.4C711.9,211.1 712.4,212.3 712.4,213.8Z" style="fill-rule:nonzero;"/>
            </g>
        </g>
    </g>
</svg>
