<?xml version="1.0" encoding="UTF-8" standalone="no"?>
<!DOCTYPE svg PUBLIC "-//W3C//DTD SVG 1.1//EN" "http://www.w3.org/Graphics/SVG/1.1/DTD/svg11.dtd">
<svg width="100%" height="100%" viewBox="0 0 60 95" version="1.1" xmlns="http://www.w3.org/2000/svg" xmlns:xlink="http://www.w3.org/1999/xlink" xml:space="preserve" xmlns:serif="http://www.serif.com/" style="fill-rule:evenodd;clip-rule:evenodd;stroke-linejoin:round;stroke-miterlimit:2;">
    <g transform="matrix(1,0,0,1,-217,-4)">
        <g id="Artboard3" transform="matrix(1,0,0,1,-0.686514,-0.404591)">
            <rect x="217.687" y="4.405" width="59.756" height="94.419" style="fill:none;"/>
            <g transform="matrix(0.322542,0,0,0.322542,230.721,13.716)">
                <path d="M83.716,56.968C78.116,51.706 72.644,50.793 69.823,50.723C69.657,50.712 69.492,50.698 69.324,50.698L30.689,50.698C30.517,50.698 30.348,50.713 30.178,50.724C27.355,50.796 21.889,51.712 16.295,56.967C3.404,69.081 -1.88,96.645 0.591,138.893C0.84,143.145 4.365,146.426 8.57,146.426C8.727,146.426 8.886,146.422 9.045,146.412C13.456,146.154 16.822,142.369 16.564,137.958C14.508,102.818 18.49,84.087 22.961,74.79L22.961,224.819C22.961,231.649 28.498,237.182 35.324,237.182C42.152,237.182 47.689,231.649 47.689,224.819L47.689,134.548L52.324,134.548L52.324,224.819C52.324,231.649 57.861,237.182 64.687,237.182C71.515,237.182 77.052,231.649 77.052,224.819L77.052,74.794C81.522,84.092 85.504,102.823 83.448,137.959C83.19,142.37 86.556,146.155 90.967,146.413C91.126,146.422 91.284,146.427 91.442,146.427C95.647,146.427 99.172,143.146 99.421,138.894C101.893,96.646 96.609,69.082 83.716,56.968Z" style="fill-rule:nonzero;"/>
            </g>
            <g transform="matrix(0.322542,0,0,0.322542,230.721,13.716)">
                <circle cx="50.007" cy="22.5" r="22.5"/>
            </g>
        </g>
    </g>
</svg>
