<?xml version="1.0" encoding="UTF-8" standalone="no"?>
<!DOCTYPE svg PUBLIC "-//W3C//DTD SVG 1.1//EN" "http://www.w3.org/Graphics/SVG/1.1/DTD/svg11.dtd">
<svg width="100%" height="100%" viewBox="0 0 108 108" version="1.1" xmlns="http://www.w3.org/2000/svg" xmlns:xlink="http://www.w3.org/1999/xlink" xml:space="preserve" xmlns:serif="http://www.serif.com/" style="fill-rule:evenodd;clip-rule:evenodd;stroke-linejoin:round;stroke-miterlimit:2;">
    <g transform="matrix(1,0,0,1,0,-124)">
        <g id="Artboard6" transform="matrix(1,0,0,1,3.82712,-0.655667)">
            <rect x="-3.827" y="124.656" width="107.844" height="107.719" style="fill:none;"/>
            <g transform="matrix(0.998073,0,0,0.959159,1.34223,130.036)">
                <path d="M68,11C68,12.657 66.658,14 65,14L44,14L44,23L47,23C48.657,23 50,24.343 50,26L50,35L32,35L32,26C32,24.343 33.343,23 35,23L38,23L38,14L35,14C33.342,14 32,12.657 32,11C32,9.343 33.342,8 35,8L65,8C66.658,8 68,9.343 68,11Z" style="fill-rule:nonzero;"/>
                <path d="M80,34.25C80,37.978 77.314,41 74,41C70.686,41 68,37.978 68,34.25C68,30.522 74,23 74,23C74,23 80,30.522 80,34.25Z" style="fill-rule:nonzero;"/>
                <path d="M53,41L29,41C24.029,41 20,45.029 20,50L20,92L62,92L62,50C62,45.029 57.971,41 53,41ZM50,68L44,68L44,74L38,74L38,68L32,68L32,62L38,62L38,56L44,56L44,62L50,62L50,68Z" style="fill-rule:nonzero;"/>
            </g>
        </g>
    </g>
</svg>
